<svg xmlns="http://www.w3.org/2000/svg" version="1.0" width="256.000000pt" height="256.000000pt" viewBox="0 0 256.000000 256.000000" preserveAspectRatio="xMidYMid meet">
<g transform="translate(0.000000,256.000000) scale(0.100000,-0.100000)" stroke="none">
<path d="M1845 1870 c-11 -5 -200 -189 -420 -409 l-400 -401 -151 150 c-83 83 -159 151 -170 151 -62 4 -104 -29 -104 -83 0 -27 21 -53 152 -185 l152 -153 -67 -67 -67 -68 -277 276 c-184 183 -287 279 -306 283 -57 13 -118 -52 -98 -105 4 -12 151 -165 326 -340 299 -299 321 -319 354 -319 34 0 67 32 613 578 520 519 578 580 578 609 0 45 -9 62 -41 78 -31 17 -45 18 -74 5z"/>
<path d="M2355 1869 c-11 -6 -257 -248 -547 -537 -424 -423 -529 -523 -540 -514 -11 9 -26 -1 -74 -49 l-59 -60 57 -54 c98 -95 37 -140 700 522 522 522 578 581 578 610 0 45 -9 62 -41 78 -33 18 -47 18 -74 4z"/>
</g>
</svg>