<svg width="26" height="26" viewBox="0 0 26 26" fill="none" xmlns="http://www.w3.org/2000/svg">
<path d="M13.1721 16.4072C14.8942 16.4072 16.2902 15.0112 16.2902 13.2892C16.2902 11.5671 14.8942 10.1711 13.1721 10.1711C11.4501 10.1711 10.0541 11.5671 10.0541 13.2892C10.0541 15.0112 11.4501 16.4072 13.1721 16.4072Z" stroke="#616161" stroke-width="1.55902" stroke-miterlimit="10" stroke-linecap="round" stroke-linejoin="round"/>
<path d="M2.77875 14.2039V12.3747C2.77875 11.2938 3.66219 10.3999 4.75351 10.3999C6.63473 10.3999 7.40385 9.06956 6.45804 7.43778C5.91758 6.50237 6.23978 5.28633 7.18558 4.74587L8.98366 3.71691C9.80474 3.22842 10.8649 3.51944 11.3534 4.34052L11.4677 4.538C12.4031 6.16977 13.9413 6.16977 14.8872 4.538L15.0015 4.34052C15.49 3.51944 16.5501 3.22842 17.3712 3.71691L19.1693 4.74587C20.1151 5.28633 20.4373 6.50237 19.8968 7.43778C18.951 9.06956 19.7201 10.3999 21.6013 10.3999C22.6823 10.3999 23.5761 11.2834 23.5761 12.3747V14.2039C23.5761 15.2849 22.6927 16.1787 21.6013 16.1787C19.7201 16.1787 18.951 17.5091 19.8968 19.1408C20.4373 20.0866 20.1151 21.2923 19.1693 21.8328L17.3712 22.8617C16.5501 23.3502 15.49 23.0592 15.0015 22.2381L14.8872 22.0406C13.9517 20.4088 12.4135 20.4088 11.4677 22.0406L11.3534 22.2381C10.8649 23.0592 9.80474 23.3502 8.98366 22.8617L7.18558 21.8328C6.23978 21.2923 5.91758 20.0763 6.45804 19.1408C7.40385 17.5091 6.63473 16.1787 4.75351 16.1787C3.66219 16.1787 2.77875 15.2849 2.77875 14.2039Z" stroke="#616161" stroke-width="1.55902" stroke-miterlimit="10" stroke-linecap="round" stroke-linejoin="round"/>
</svg>
