<svg width="34" height="35" viewBox="0 0 34 35" fill="none" xmlns="http://www.w3.org/2000/svg">
<path d="M16.9597 22.3646C20.0223 22.3646 22.5029 19.8841 22.5029 16.8215V9.19956C22.5029 6.13695 20.0223 3.65637 16.9597 3.65637C13.8971 3.65637 11.4165 6.13695 11.4165 9.19956V16.8215C11.4165 19.8841 13.8971 22.3646 16.9597 22.3646Z" stroke="#616161" stroke-width="2.0787" stroke-linecap="round" stroke-linejoin="round"/>
<path d="M6.35803 14.2578V16.6137C6.35803 22.4617 11.1113 27.215 16.9594 27.215C22.8075 27.215 27.5607 22.4617 27.5607 16.6137V14.2578" stroke="#616161" stroke-width="2.0787" stroke-linecap="round" stroke-linejoin="round"/>
<path d="M15.0332 9.79538C16.2804 9.33806 17.6385 9.33806 18.8857 9.79538" stroke="#616161" stroke-width="2.0787" stroke-linecap="round" stroke-linejoin="round"/>
<path d="M15.8508 12.7334C16.5853 12.5394 17.3475 12.5394 18.082 12.7334" stroke="#616161" stroke-width="2.0787" stroke-linecap="round" stroke-linejoin="round"/>
<path d="M16.9594 27.215V31.3724" stroke="#616161" stroke-width="2.0787" stroke-linecap="round" stroke-linejoin="round"/>
</svg>
