<svg width="34" height="34" viewBox="0 0 34 34" fill="none" xmlns="http://www.w3.org/2000/svg">
<path d="M21.1124 11.1381L10.497 21.9319C10.1456 22.3197 9.95676 22.8279 9.96964 23.3511C9.98253 23.8744 10.1961 24.3726 10.5662 24.7427C10.9363 25.1128 11.4346 25.3264 11.9578 25.3393C12.481 25.3522 12.9892 25.1634 13.3771 24.8119L26.0314 11.9792C26.7343 11.2034 27.1119 10.1871 27.0862 9.14065C27.0604 8.09418 26.6332 7.09768 25.893 6.35749C25.1528 5.61729 24.1563 5.19009 23.1098 5.16432C22.0634 5.13856 21.0471 5.5162 20.2713 6.21908L7.61697 19.0518C6.47122 20.1976 5.82755 21.7516 5.82755 23.3719C5.82755 24.9922 6.47122 26.5462 7.61697 27.692C8.76273 28.8377 10.3167 29.4814 11.937 29.4814C13.5574 29.4814 15.1114 28.8377 16.2571 27.692L26.7196 17.255" stroke="#616161" stroke-width="2.03897" stroke-linecap="round" stroke-linejoin="round"/>
</svg>
