<svg width="33" height="34" viewBox="0 0 33 34" fill="none" xmlns="http://www.w3.org/2000/svg">
<path d="M16.5926 29.4889C23.3492 29.4889 28.8264 24.0116 28.8264 17.2551C28.8264 10.4985 23.3492 5.02124 16.5926 5.02124C9.83607 5.02124 4.35881 10.4985 4.35881 17.2551C4.35881 24.0116 9.83607 29.4889 16.5926 29.4889Z" stroke="#616161" stroke-width="2.03897" stroke-linecap="round" stroke-linejoin="round"/>
<path d="M12.0049 16.2355C12.8495 16.2355 13.5342 15.5508 13.5342 14.7062C13.5342 13.8617 12.8495 13.177 12.0049 13.177C11.1604 13.177 10.4757 13.8617 10.4757 14.7062C10.4757 15.5508 11.1604 16.2355 12.0049 16.2355Z" fill="#616161"/>
<path d="M21.1803 16.2355C22.0249 16.2355 22.7095 15.5508 22.7095 14.7062C22.7095 13.8617 22.0249 13.177 21.1803 13.177C20.3357 13.177 19.6511 13.8617 19.6511 14.7062C19.6511 15.5508 20.3357 16.2355 21.1803 16.2355Z" fill="#616161"/>
<path d="M21.8939 20.3135C21.355 21.242 20.5817 22.0126 19.6513 22.5483C18.7209 23.084 17.6662 23.366 16.5926 23.366C15.5191 23.366 14.4643 23.084 13.5339 22.5483C12.6036 22.0126 11.8302 21.242 11.2913 20.3135" stroke="#616161" stroke-width="2.03897" stroke-linecap="round" stroke-linejoin="round"/>
</svg>
