<svg xmlns="http://www.w3.org/2000/svg" width="26" height="25" viewBox="0 0 26 25" fill="none">
  <path d="M23.2207 18.7385C23.2207 19.1055 23.1391 19.4827 22.9658 19.8498C22.7925 20.2168 22.5682 20.5634 22.2726 20.8896C21.773 21.4401 21.2225 21.8377 20.6006 22.0926C19.9889 22.3475 19.3262 22.48 18.6126 22.48C17.5727 22.48 16.4615 22.2353 15.2891 21.7358C14.1167 21.2362 12.9443 20.5634 11.7821 19.7172C10.6097 18.8609 9.49842 17.9127 8.43815 16.8627C7.38808 15.8024 6.43996 14.6912 5.59379 13.5289C4.75781 12.3667 4.08495 11.2045 3.5956 10.0525C3.10625 8.89029 2.86157 7.77905 2.86157 6.71879C2.86157 6.02554 2.98391 5.36288 3.22859 4.75119C3.47326 4.1293 3.86067 3.55839 4.40099 3.04865C5.05346 2.40637 5.7671 2.09033 6.52152 2.09033C6.80698 2.09033 7.09243 2.1515 7.3473 2.27384C7.61237 2.39618 7.84685 2.57968 8.03036 2.84475L10.3956 6.17846C10.5791 6.43334 10.7116 6.66782 10.8034 6.8921C10.8951 7.1062 10.9461 7.32029 10.9461 7.51399C10.9461 7.75867 10.8747 8.00334 10.732 8.23782C10.5995 8.4723 10.4058 8.71698 10.1611 8.96166L9.38627 9.76705C9.27413 9.87919 9.22315 10.0117 9.22315 10.1748C9.22315 10.2564 9.23335 10.3278 9.25374 10.4093C9.28432 10.4909 9.31491 10.5521 9.3353 10.6132C9.51881 10.9497 9.83485 11.388 10.2834 11.9182C10.7422 12.4483 11.2315 12.9886 11.7617 13.5289C12.3122 14.0693 12.8423 14.5688 13.3827 15.0276C13.9128 15.4762 14.3512 15.782 14.6978 15.9655C14.7488 15.9859 14.8099 16.0165 14.8813 16.0471C14.9629 16.0777 15.0444 16.0879 15.1362 16.0879C15.3095 16.0879 15.442 16.0267 15.5542 15.9145L16.329 15.1499C16.5838 14.8951 16.8285 14.7014 17.063 14.579C17.2975 14.4363 17.532 14.3649 17.7868 14.3649C17.9805 14.3649 18.1844 14.4057 18.4087 14.4975C18.633 14.5892 18.8675 14.7217 19.1223 14.8951L22.4968 17.2908C22.7619 17.4744 22.9454 17.6884 23.0576 17.9433C23.1595 18.1982 23.2207 18.4531 23.2207 18.7385Z" stroke="white" stroke-width="1.52923" stroke-miterlimit="10"/>
</svg>