<svg xmlns="http://www.w3.org/2000/svg" width="25" height="25" viewBox="0 0 25 25" fill="none">
  <path d="M12.7852 20.8888H6.34208C3.12051 20.8888 2.05005 18.7479 2.05005 16.5968V8.01273C2.05005 4.79116 3.12051 3.7207 6.34208 3.7207H12.7852C16.0068 3.7207 17.0772 4.79116 17.0772 8.01273V16.5968C17.0772 19.8184 15.9966 20.8888 12.7852 20.8888Z" stroke="white" stroke-width="1.52923" stroke-linecap="round" stroke-linejoin="round"/>
  <path d="M19.9113 17.5038L17.0771 15.5158V9.08282L19.9113 7.09483C21.2978 6.12632 22.4396 6.71762 22.4396 8.42016V16.1886C22.4396 17.8912 21.2978 18.4825 19.9113 17.5038Z" stroke="white" stroke-width="1.52923" stroke-linecap="round" stroke-linejoin="round"/>
  <path d="M11.735 11.285C12.5796 11.285 13.2643 10.6004 13.2643 9.75579C13.2643 8.91122 12.5796 8.22656 11.735 8.22656C10.8905 8.22656 10.2058 8.91122 10.2058 9.75579C10.2058 10.6004 10.8905 11.285 11.735 11.285Z" stroke="white" stroke-width="1.52923" stroke-linecap="round" stroke-linejoin="round"/>
</svg>